<svg width="500" height="400" viewBox="0 0 1155 834" fill="none" xmlns="http://www.w3.org/2000/svg">
        <g id="photo1 1" clip-path="url(#clip0)">
            <path id="Vector"
                d="M187.931 834H187C138.804 834 93.0605 831.604 58.1958 827.252L56.7896 827.067C55.8359 826.942 54.894 826.817 53.9639 826.69C48.4917 825.969 43.1362 825.159 38.0508 824.285C12.8013 819.889 0 814.648 0 808.71C0 803.784 8.39648 799.49 25.6694 795.584C33.98 793.706 44.2393 791.975 56.1621 790.438C58.334 790.148 60.5703 789.877 62.8569 789.617C97.0093 785.621 141.099 783.42 187 783.42C196.073 783.42 205.255 783.508 214.289 783.68C291.21 785.154 374 793.615 374 808.71C374 817.726 344.066 823.544 318.954 826.838C283.998 831.422 237.466 833.966 187.931 834ZM187 785.42C141.174 785.42 97.167 787.616 63.0864 791.604C60.8096 791.863 58.5882 792.136 56.4224 792.421C44.5566 793.95 34.3599 795.67 26.1108 797.535C4.34912 802.456 2 806.989 2 808.71C2 810.896 5.5459 816.596 38.3916 822.315C43.4492 823.184 48.7788 823.989 54.231 824.709C55.1611 824.837 56.1001 824.96 57.0493 825.084L58.4512 825.269C93.229 829.609 138.884 832 187 832H187.93C298.036 831.924 372 819.896 372 808.71C372 798.875 312.994 787.571 214.251 785.68C205.229 785.507 196.061 785.42 187 785.42Z"
                fill="#3F3D56" />
            <path id="Vector_2"
                d="M313.5 808.71C313.5 822.09 264.767 832.93 204.548 833H204C174.606 833 147.914 830.43 128.245 826.26C127.403 826.07 126.573 825.89 125.76 825.7C122.417 824.95 119.291 824.14 116.412 823.3C102.654 819.23 94.5 814.18 94.5 808.71C94.5 804.28 99.8337 800.14 109.153 796.56C114.984 794.411 120.966 792.696 127.05 791.43C128.327 791.14 129.64 790.87 130.982 790.61C150.357 786.76 175.948 784.42 204 784.42C209.451 784.42 214.815 784.51 220.054 784.68C272.914 786.4 313.5 796.5 313.5 808.71Z"
                fill="#3F3D56" />
            <path id="Vector_3"
                d="M148.929 588.604L153.602 625.057C153.602 625.057 155.471 637.208 157.341 643.751C157.341 643.751 155.471 678.334 170.427 702.636L179.773 720.395L181.643 746.567L205.01 749.371L200.337 710.114C200.337 710.114 198.467 691.42 200.337 683.942C202.206 676.465 190.99 641.881 190.99 641.881C190.99 641.881 205.945 593.277 194.729 581.126C183.512 568.975 148.929 588.604 148.929 588.604Z"
                fill="#A0616A" />
            <path id="Vector_4"
                d="M190.055 739.089C190.055 739.089 179.773 739.089 178.839 741.893C177.904 744.698 162.949 769.934 162.949 769.934C162.949 769.934 149.863 790.498 168.557 791.432C187.251 792.367 192.859 783.955 192.859 783.955C192.859 783.955 209.684 756.849 210.618 752.175C211.553 747.502 203.595 737.486 203.595 737.486C203.595 737.486 192.859 744.698 190.055 739.089Z"
                fill="#2F2E41" />
            <path id="Vector_5"
                d="M203.141 281.089C220.692 281.089 234.92 266.861 234.92 249.31C234.92 231.758 220.692 217.53 203.141 217.53C185.589 217.53 171.361 231.758 171.361 249.31C171.361 266.861 185.589 281.089 203.141 281.089Z"
                fill="#A0616A" />
            <path id="Vector_6"
                d="M177.437 259.124C177.437 259.124 177.437 293.708 165.286 296.512C153.135 299.316 182.11 331.095 198 327.357C213.89 323.618 220.433 298.381 220.433 298.381C220.433 298.381 206.412 280.622 212.02 271.275C217.629 261.928 177.437 259.124 177.437 259.124Z"
                fill="#A0616A" />
            <path id="Vector_7"
                d="M190.99 307.261C186.528 307.121 182.165 305.916 178.264 303.746C174.363 301.577 171.038 298.505 168.566 294.788C168.566 294.788 155.471 296.979 153.602 297.914C151.733 298.849 119.018 309.13 111.541 330.628L141.451 368.951C141.451 368.951 134.908 423.163 141.451 447.465C145.347 462.021 144.362 477.453 138.647 491.396C138.647 491.396 135.843 492.33 140.516 494.2C145.19 496.069 252.68 474.571 254.549 468.963C256.418 463.355 252.68 463.355 255.484 460.551C258.288 457.746 265.765 440.922 258.288 435.314C250.81 429.706 246.137 368.016 246.137 368.016L265.765 318.477C265.765 318.477 229.892 289.807 216.984 293.393C216.983 293.393 214.357 307.261 190.99 307.261Z"
                fill="#D0CDE1" />
            <path id="Vector_8"
                d="M203.141 569.91C203.141 569.91 201.271 611.036 205.01 626.926C208.749 642.816 208.749 649.359 208.749 649.359C208.749 649.359 203.141 676.465 205.945 701.702C208.749 726.938 202.673 767.617 202.673 767.617L225.573 774.608L239.594 703.571C239.594 703.571 250.81 659.64 244.267 639.077C244.267 639.077 248.006 576.453 250.81 569.91C253.614 563.367 203.141 569.91 203.141 569.91Z"
                fill="#A0616A" />
            <path id="Vector_9"
                d="M178.06 254.97C178.481 251.989 179.372 248.737 181.914 247.124C184.553 245.449 187.959 246.136 191.076 246.364C194.193 246.592 198.013 245.812 199.037 242.86C199.676 241.019 198.986 238.819 199.982 237.144C201.568 234.479 206.411 234.783 207.246 231.797C207.511 230.851 207.253 229.795 207.635 228.89C208.15 227.669 209.597 227.182 210.887 226.883C215.607 225.791 220.457 225.364 225.295 225.614C225.768 225.698 226.256 225.602 226.662 225.343C226.875 225.131 227.028 224.866 227.103 224.575C228.198 221.302 227.038 217.589 224.861 214.912C222.547 212.334 219.695 210.296 216.507 208.943C209.447 205.519 201.794 203.485 193.965 202.952C188.003 202.578 181.745 203.227 176.667 206.373C175.162 207.325 173.765 208.438 172.501 209.693C166.977 215.233 163.375 222.399 162.225 230.138C161.11 237.858 161.974 245.735 164.735 253.03C166.349 257.421 168.894 261.957 172.832 264.663C174.942 266.114 176.762 267.453 177.638 264.99C178.568 262.378 177.651 257.864 178.06 254.97Z"
                fill="#2F2E41" />
            <path id="Vector_10"
                d="M143.32 485.787C143.32 485.787 129.3 504.481 132.104 517.567C134.908 530.653 145.19 552.151 145.19 552.151C145.19 552.151 139.582 594.212 148.929 594.212C158.275 594.212 198.467 592.342 199.402 587.669C200.337 582.995 196.598 536.261 196.598 536.261C196.598 536.261 201.271 577.387 204.076 577.387C206.88 577.387 255.484 582.061 257.353 579.257C259.222 576.453 262.961 504.481 262.961 504.481C262.961 504.481 268.059 470.538 251.957 466.012C235.855 461.485 143.32 485.787 143.32 485.787Z"
                fill="#2F2E41" />
            <path id="Vector_11"
                d="M218.096 767.13C218.096 767.13 201.271 757.783 200.337 765.261C199.402 772.738 189.12 799.844 189.12 799.844C189.12 799.844 178.839 821.342 201.271 822.277C223.704 823.212 229.312 812.93 229.312 808.257C229.312 803.583 226.798 771.52 226.798 771.52L218.096 767.13Z"
                fill="#2F2E41" />
            <path id="Vector_12"
                d="M276.047 368.951L280.72 410.077C280.72 410.077 286.329 432.51 282.59 441.857C278.851 451.204 264.831 494.2 264.831 494.2C264.831 494.2 261.092 470.832 251.745 468.028L257.353 414.751C257.353 414.751 243.971 381.504 246.923 377.097C249.876 372.689 276.047 368.951 276.047 368.951Z"
                fill="#A0616A" />
            <path id="Vector_13"
                d="M109.671 371.755L111.541 409.142C111.541 409.142 104.998 441.857 118.084 476.44L119.953 491.396L132.104 514.763C132.104 514.763 134.908 492.33 140.516 492.33C140.516 492.33 134.908 477.375 136.778 468.963C138.647 460.551 135.843 415.685 135.843 415.685L140.516 379.391L109.671 371.755Z"
                fill="#A0616A" />
            <path id="Vector_14"
                d="M255.484 317.542H265.765C265.765 317.542 290.067 373.624 280.72 374.559C271.374 375.493 241.463 382.971 240.529 379.232C239.594 375.493 255.484 317.542 255.484 317.542Z"
                fill="#D0CDE1" />
            <path id="Vector_15"
                d="M119.953 322.216L111.541 330.628C111.541 330.628 100.324 372.689 108.737 377.363C117.149 382.036 148.929 387.644 150.798 383.906C152.667 380.167 119.953 322.216 119.953 322.216Z"
                fill="#D0CDE1" />
            <path id="Vector_16"
                d="M96.7373 787.466L95.6641 787.063C95.4282 786.975 71.9556 777.981 60.96 757.59C49.9639 737.197 55.3481 712.645 55.4038 712.399L55.6572 711.281L56.73 711.684C56.9658 711.772 80.438 720.766 91.4341 741.157C102.43 761.55 97.0459 786.103 96.9902 786.348L96.7373 787.466ZM62.7207 756.641C72.0171 773.882 90.5659 782.72 95.2656 784.737C96.1592 779.7 98.9614 759.331 89.6733 742.106C80.3862 724.884 61.8301 716.032 57.1284 714.01C56.2344 719.05 53.4331 739.417 62.7207 756.641Z"
                fill="#3F3D56" />
            <path id="Vector_17"
                d="M69.3632 750.437C89.1237 762.325 96.7342 785.939 96.7342 785.939C96.7342 785.939 72.3064 790.278 52.5458 778.39C32.7852 766.501 25.1748 742.887 25.1748 742.887C25.1748 742.887 49.6026 738.548 69.3632 750.437Z"
                fill="#6C63FF" />
            <path id="Vector_18"
                d="M821.5 32.3282V751.694C821.506 756.366 820.498 760.983 818.545 765.227C816.592 769.471 813.742 773.241 810.19 776.276C804.39 781.275 796.983 784.017 789.326 784H498.674C492.266 784.009 486.002 782.095 480.693 778.507C476.319 775.534 472.739 771.537 470.265 766.864C467.791 762.19 466.499 756.982 466.5 751.694V32.3282C466.49 28.0928 467.314 23.8968 468.925 19.9799C470.536 16.063 472.903 12.5018 475.891 9.49981C478.879 6.49779 482.429 4.11371 486.338 2.48372C490.247 0.853733 494.439 0.00975979 498.674 0H542.17V5.60443C542.152 12.6471 544.933 19.4083 549.9 24.4011C554.867 29.3939 561.613 32.2094 568.656 32.2283H716.483C722.142 32.2391 727.653 30.4169 732.189 27.0345C733.108 26.3631 733.979 25.6289 734.796 24.8371C737.386 22.349 739.446 19.3623 740.85 16.0569C742.255 12.7515 742.976 9.19592 742.969 5.60443V0H789.326C793.561 0.00883134 797.754 0.852172 801.663 2.48183C805.573 4.1115 809.123 6.49554 812.111 9.49774C815.099 12.4999 817.466 16.0615 819.077 19.9788C820.688 23.8962 821.511 28.0925 821.5 32.3282Z"
                fill="#3F3D56" />
            <path id="Vector_19" opacity="0.1"
                d="M647.744 645.148C696.559 645.148 736.132 637.234 736.132 627.471C736.132 617.708 696.559 609.793 647.744 609.793C598.929 609.793 559.356 617.708 559.356 627.471C559.356 637.234 598.929 645.148 647.744 645.148Z"
                fill="black" />
            <path id="Vector_20" d="M1154.5 460.124H647.744V509.639V585.045V627.471L690.17 585.045H1154.5V460.124Z"
                fill="#6C63FF" />
            <path id="Vector_21" d="M1075.54 488.408H726.704V516.692H1075.54V488.408Z" fill="white" />
            <path id="Vector_22" d="M1075.54 530.834H726.704V559.118H1075.54V530.834Z" fill="white" />
            <path id="cloud_2"
                d="M775.669 184.47C776.26 181.611 776.056 178.646 775.08 175.895C774.104 173.144 772.393 170.713 770.133 168.866C767.873 167.019 765.15 165.826 762.26 165.417C759.37 165.007 756.424 165.397 753.74 166.545C749.879 161.631 744.55 158.078 738.53 156.403C732.51 154.728 726.112 155.019 720.268 157.232C714.707 150.943 707.368 146.491 699.221 144.466C691.074 142.44 682.504 142.937 674.646 145.89C666.787 148.843 660.011 154.113 655.214 161.002C650.417 167.891 647.826 176.075 647.783 184.47H775.669Z"
                fill="#EFEFEF" />
            <g id="cloud_1" filter="url(#filter0_d)">
                <path
                    d="M594.682 241.24C594.683 232.826 592.123 224.612 587.342 217.689C582.561 210.766 575.787 205.462 567.919 202.482C560.051 199.502 551.462 198.988 543.295 201.007C535.127 203.026 527.768 207.483 522.195 213.786C515.245 211.154 507.556 211.256 500.678 214.071C493.8 216.885 488.246 222.203 485.134 228.951C481.052 228.249 476.857 229.161 473.435 231.494C470.012 233.827 467.631 237.399 466.793 241.456H594.68C594.68 241.384 594.682 241.312 594.682 241.24Z"
                    fill="#EFEFEF" />
            </g>
            <g id="cloud_1_2">
                <path id="cloud_3"
                    d="M754.847 287.468C754.847 280.418 752.702 273.534 748.696 267.733C744.69 261.932 739.013 257.487 732.42 254.99C725.827 252.493 718.63 252.062 711.786 253.754C704.942 255.446 698.775 259.181 694.105 264.462C688.281 262.257 681.838 262.343 676.074 264.701C670.311 267.059 665.656 271.515 663.049 277.171C659.629 276.582 656.113 277.346 653.245 279.301C650.377 281.256 648.382 284.25 647.68 287.649H754.845C754.845 287.588 754.847 287.528 754.847 287.468Z"
                    fill="#EFEFEF" />
            </g>
            <path id="rain_1"
                d="M677.139 236.392L674.122 233.158L669.498 237.471L673.811 242.095L677.139 238.991L678.434 237.782L677.139 236.392ZM673.832 241.408L670.184 237.493L674.096 233.845L677.139 237.104L677.748 237.756L677.139 238.326L673.832 241.408Z"
                fill="#EFEFEF" />
            <path id="rain_1"
                d="M716.429 207.256L711.806 211.568L716.118 216.192L720.742 211.879L716.429 207.256ZM712.492 211.59L716.403 207.942L720.056 211.853L716.14 215.505L712.492 211.59Z"
                fill="#EFEFEF" />
            <path id="rain_3"
                d="M541.534 309.964L536.911 314.277L541.224 318.9L545.847 314.587L541.534 309.964ZM537.597 314.303L541.509 310.65L545.161 314.566L541.25 318.214L537.597 314.303Z"
                fill="#EFEFEF" />
            <path id="rain_4"
                d="M722.901 329.197L720.263 326.369L715.639 330.682L719.952 335.305L722.901 332.555L724.576 330.992L722.901 329.197ZM719.978 334.619L716.326 330.708L720.237 327.055L722.901 329.909L723.889 330.971L722.901 331.895L719.978 334.619Z"
                fill="#EFEFEF" />
            <path id="rain_5"
                d="M513.089 283.25L513.042 283.198L508.418 287.511L512.731 292.134L513.089 291.802L517.354 287.821L513.089 283.25ZM512.757 291.448L509.104 287.536L513.016 283.884L513.089 283.962L516.668 287.8L513.089 291.137L512.757 291.448Z"
                fill="#EFEFEF" />
            <path id="rain_6"
                d="M573.861 271.006V264.686H567.536V271.006H573.861ZM568.024 265.17H573.373V270.523H568.024V265.17Z"
                fill="#EFEFEF" />
            <g id="Frame">
                <path id="rain_7"
                    d="M580.861 328.006V321.686H574.536V328.006H580.861ZM575.024 322.17H580.373V327.523H575.024V322.17Z"
                    fill="#EFEFEF" />
            </g>
            <path id="rain_8"
                d="M681.94 314.333V320.653H688.264V314.333L681.94 314.333ZM687.777 320.169H682.428V314.816H687.777V320.169Z"
                fill="#EFEFEF" />
            <g id="Frame_2">
                <path id="rain_9"
                    d="M492.861 342.006V335.686H486.536V342.006H492.861ZM487.024 336.17H492.373V341.523H487.024V336.17Z"
                    fill="#EFEFEF" />
            </g>
            <g id="Frame_3">
                <path id="rain_10"
                    d="M758.861 202.006V195.686H752.536V202.006H758.861ZM753.024 196.17H758.373V201.523H753.024V196.17Z"
                    fill="#EFEFEF" />
            </g>
            <g id="Frame_4">
                <path id="rain_11"
                    d="M668.861 203.006V196.686H662.536V203.006H668.861ZM663.024 197.17H668.373V202.523H663.024V197.17Z"
                    fill="#EFEFEF" />
            </g>
            <g id="Frame_5">
                <path id="rain_12"
                    d="M749.861 309.006V302.686H743.536V309.006H749.861ZM744.024 303.17H749.373V308.523H744.024V303.17Z"
                    fill="#EFEFEF" />
            </g>
            <!-- <g id="Frame_6">
                <path id="rain_8"
                    d="M661.861 308.006V301.686H655.536V308.006H661.861ZM656.024 302.17H661.373V307.523H656.024V302.17Z"
                    fill="#EFEFEF" />
            </g>
            <g id="Frame_7">
                <path id="rain_7"
                    d="M681.861 356.006V349.686H675.536V356.006H681.861ZM676.024 350.17H681.373V355.523H676.024V350.17Z"
                    fill="#EFEFEF" />
            </g>
            <g id="Frame_8">
                <path id="rain_8"
                    d="M621.861 292.006V285.686H615.536V292.006H621.861ZM616.024 286.17H621.373V291.523H616.024V286.17Z"
                    fill="#EFEFEF" /> -->
        
        </g>
        <defs>
            <filter id="filter0_d" x="462.793" y="199.796" width="135.889" height="49.66" filterUnits="userSpaceOnUse"
                color-interpolation-filters="sRGB">
                <feFlood flood-opacity="0" result="BackgroundImageFix" />
                <feColorMatrix in="SourceAlpha" type="matrix" values="0 0 0 0 0 0 0 0 0 0 0 0 0 0 0 0 0 0 127 0" />
                <feOffset dy="4" />
                <feGaussianBlur stdDeviation="2" />
                <feColorMatrix type="matrix" values="0 0 0 0 0 0 0 0 0 0 0 0 0 0 0 0 0 0 0.25 0" />
                <feBlend mode="normal" in2="BackgroundImageFix" result="effect1_dropShadow" />
                <feBlend mode="normal" in="SourceGraphic" in2="effect1_dropShadow" result="shape" />
            </filter>
            <clipPath id="clip0">
                <rect width="1154.5" height="834" fill="white" />
            </clipPath>
        </defs>
    </svg>
